<svg width="241" height="241" viewBox="0 0 241 241" fill="none" xmlns="http://www.w3.org/2000/svg">
<rect x="54" y="125.571" width="14" height="70.7143" fill="#00aa44"/>
<rect x="60" y="99" width="2" height="27" fill="#00aa44"/>
<rect x="60" y="191.464" width="2" height="30.5357" fill="#00aa44"/>
<rect x="173" y="32" width="14" height="50" fill="#00aa44"/>
<rect x="179" y="18" width="2" height="27" fill="#00aa44"/>
<rect x="179" y="77.4643" width="2" height="30.5357" fill="#00aa44"/>
<rect x="139" y="81" width="14" height="40" fill="#00aa44"/>
<rect x="145" y="54" width="2" height="27" fill="#00aa44"/>
<rect x="145" y="116.464" width="2" height="30.5357" fill="#00aa44"/>
<rect x="71" y="81" width="14" height="44" fill="#00aa44"/>
<rect x="77" y="57" width="2" height="24" fill="#00aa44"/>
<rect x="77" y="122" width="2" height="19" fill="#00aa44"/>
<rect x="122" y="117" width="14" height="20" fill="#00aa44"/>
<rect x="128" y="105" width="2" height="18" fill="#00aa44"/>
<rect x="128" y="134" width="2" height="42" fill="#00aa44"/>
<rect x="88" y="81" width="14" height="16" fill="#F23645"/>
<rect x="94" y="45" width="2" height="36" fill="#F23645"/>
<rect x="94" y="97" width="2" height="14" fill="#F23645"/>
<rect x="156" y="81" width="14" height="23" fill="#F23645"/>
<rect x="162" y="46" width="2" height="35" fill="#F23645"/>
<rect x="162" y="97" width="2" height="20" fill="#F23645"/>
<rect x="105" y="96" width="14" height="41" fill="#F23645"/>
<rect x="111" y="75" width="2" height="21" fill="#F23645"/>
<rect x="111" y="136" width="2" height="14" fill="#F23645"/>
<path d="M69 177L72.5 159.5L75 142L79.5 128.5L85 117L96.4231 112.5L101.5 120.5L103.5 130L105.5 138.5L112.5 146.5L121 150L129.5 154L137 144.5L144 130L153.5 117L165 109.5L178 101.5L202 96.5" stroke="#c3d4ff"/>
<path d="M8.20923 204.677L25.8766 204.68L25.9707 226.932L17.0378 226.869L17.0352 213.518L8.2008 213.504L8.20923 204.677Z" fill="white"/>
<path d="M32.5532 213.289C35.0155 213.289 37.0117 211.292 37.0117 208.83C37.0117 206.368 35.0155 204.372 32.5532 204.372C30.0908 204.372 28.0946 206.368 28.0946 208.83C28.0946 211.292 30.0908 213.289 32.5532 213.289Z" fill="white"/>
<path d="M41.5828 204.692L51.8757 204.703L42.5528 226.77L32.3689 226.748L41.5118 204.71L41.5828 204.692Z" fill="white"/>
</svg>
